# xmcd
#
# Track frame offsets:
#	150
#	16354
#	36335
#	51177
#
# Disc length: 954 seconds
#
# Revision: 0
# Processed by: cddbd v1.5.2PL0 Copyright (c) Steve Scherf et al.
# Submitted via: EasyCDDAExtractor 11.0.0.1
#
DISCID=2d03b804
DTITLE=ΣΕΡΚΟΣ ΑΛΕΞΗΣ - Η ΚΛΗΣΗ ΣΑΣ ΠΡΟΩΘΕΙΤΑΙ
DYEAR=2001
DGENRE=ΛΑΪΚΑ
TTITLE0=Σέρκος Αλέξης_01 Η κλήση σας προωθείται
TTITLE1=Σέρκος Αλέξης_02 Σ' έχω κακομάθει
TTITLE2=Σέρκος Αλέξης_03 Το πρόσωπό σου
TTITLE3=Σέρκος Αλέξης_04 Το κλίκ
EXTD=
EXTT0=
EXTT1=
EXTT2=
EXTT3=
PLAYORDER=
